# xmcd
#
# Track frame offsets: 
#        150
#        14830
#        27560
#        40515
#        53830
#        69802
#        81982
#        94500
#        105437
#        118660
#        128992
#        148747
#        157925
#        169485
#
# Disc length: 2452 seconds
#
# Revision: 2
# Processed by: cddbd v1.5.2PL0 Copyright (c) Steve Scherf et al.
# Submitted via: ExactAudioCopyFreeDBPlugin 1.0
#
DISCID=b809920e
DTITLE=Various Artist - Country Greats  - Golden Country Classics [CD
DTITLE=2)
DYEAR=1900
DGENRE=Country
TTITLE0=John Denver - Take me home Countryroads
TTITLE1=Don Williams - You´re my best friend
TTITLE2=Lynn Anderson - Rose garden
TTITLE3=Tom Jones - He stopped loving her today
TTITLE4=Willie Nelson - Always on my mind
TTITLE5=Billie Jo Spears - You never can tell
TTITLE6=Jim Reeves - I love you because
TTITLE7=Jonny Cash - Cry cry cry
TTITLE8=Charlie Rich - Behind closed doors
TTITLE9=Johnny Russell Jambalaya
TTITLE10=Marty Robbins - El Paso
TTITLE11=Frankie Laine - Rawhide
TTITLE12=Crystal Gayle - Don´t it make my brown eyes blue
TTITLE13=Jeannie C. Riley - Harper Valley
EXTD=ID3G: 116
EXTT0=
EXTT1=
EXTT2=
EXTT3=
EXTT4=
EXTT5=
EXTT6=
EXTT7=
EXTT8=
EXTT9=
EXTT10=
EXTT11=
EXTT12=
EXTT13=
PLAYORDER=
